<?xml version="1.0" standalone="no"?>
<!DOCTYPE svg PUBLIC "-//W3C//DTD SVG 20010904//EN"
 "http://www.w3.org/TR/2001/REC-SVG-20010904/DTD/svg10.dtd">
<svg version="1.0" xmlns="http://www.w3.org/2000/svg"
 width="142.000000pt" height="142.000000pt" viewBox="0 0 142.000000 142.000000"
 preserveAspectRatio="xMidYMid meet">
<metadata>
Created by potrace 1.14, written by Peter Selinger 2001-2017
</metadata>
<g transform="translate(0.000000,142.000000) scale(0.100000,-0.100000)"
fill="#000000" stroke="none">
<path d="M710 710 l0 -710 355 0 355 0 0 710 0 710 -355 0 -355 0 0 -710z
m519 324 c135 -56 142 -220 12 -278 l-40 -19 31 -21 c50 -34 70 -68 71 -122 1
-97 -60 -167 -172 -201 -40 -12 -93 -17 -187 -17 -72 1 -135 4 -141 7 -10 7
106 639 120 654 26 25 244 23 306 -3z"/>
<path d="M1049 938 c-9 -7 -19 -31 -23 -53 -3 -22 -8 -55 -12 -72 -6 -32 -6
-33 29 -33 59 0 96 11 122 38 34 34 34 85 0 108 -34 22 -96 29 -116 12z"/>
<path d="M985 668 c-12 -38 -34 -171 -29 -179 14 -24 135 0 171 33 48 45 37
119 -22 143 -43 18 -114 20 -120 3z"/>
<path d="M269 980 c-43 -13 -76 -39 -93 -75 -20 -42 -20 -68 -1 -109 20 -43
69 -68 181 -95 116 -29 151 -49 159 -95 16 -83 -45 -129 -167 -124 -88 4 -122
21 -151 81 -23 46 -61 53 -51 10 21 -89 92 -135 208 -137 124 -2 196 51 204
148 7 88 -36 123 -198 163 -108 26 -144 48 -148 88 -7 53 6 75 55 97 83 36
198 9 226 -54 8 -18 19 -28 34 -28 20 0 21 3 11 30 -15 43 -59 84 -105 98 -45
13 -124 14 -164 2z"/>
</g>
</svg>
